<svg xmlns="http://www.w3.org/2000/svg" viewBox="0 0 355 355"><defs><style>.cls-1{fill:#fff;}.cls-2{fill:none;stroke:#231815;stroke-miterlimit:10;stroke-width:5px;}</style></defs><g id="レイヤー_2" data-name="レイヤー 2"><g id="レイヤー_1-2" data-name="レイヤー 1"><polygon class="cls-1" points="2.5 2.5 2.5 52.5 52.5 52.5 52.5 102.5 2.5 102.5 2.5 252.5 52.5 252.5 52.5 302.5 2.5 302.5 2.5 352.5 352.5 352.5 352.5 302.5 302.5 302.5 302.5 277.5 352.5 277.5 352.5 2.5 2.5 2.5"/><rect class="cls-2" x="62.5" y="52.5" width="50" height="50"/><line class="cls-2" x1="62.5" y1="152.5" x2="62.5" y2="102.5"/><line class="cls-2" x1="122.5" y1="102.5" x2="122.5" y2="52.5"/><polyline class="cls-2" points="122.5 77.5 147.5 52.5 172.5 52.5"/><polyline class="cls-2" points="232.5 102.5 182.5 102.5 182.5 52.5 232.5 52.5 232.5 77.5 182.5 77.5"/><polyline class="cls-2" points="242.5 52.5 292.5 52.5 292.5 102.5 242.5 102.5 242.5 77.5 292.5 77.5"/><rect class="cls-2" x="302.5" y="52.5" width="50" height="50"/><line class="cls-2" x1="352.5" y1="2.5" x2="352.5" y2="52.5"/><rect class="cls-2" x="62.5" y="252.5" width="50" height="50" transform="translate(175 555) rotate(180)"/><line class="cls-2" x1="112.5" y1="352.5" x2="112.5" y2="302.5"/><polyline class="cls-2" points="172.5 252.5 172.5 302.5 122.5 302.5 122.5 252.5"/><polyline class="cls-2" points="182.5 252.5 232.5 252.5 232.5 302.5 182.5 302.5 182.5 277.5 232.5 277.5"/><line class="cls-2" x1="242.5" y1="302.5" x2="242.5" y2="252.5"/><polyline class="cls-2" points="242.5 277.5 267.5 252.5 292.5 252.5"/><polyline class="cls-2" points="2.5 202.5 2.5 102.5 52.5 102.5 52.5 52.5 2.5 52.5 2.5 2.5 52.5 2.5"/><polyline class="cls-2" points="52.5 202.5 2.5 202.5 2.5 252.5 52.5 252.5 52.5 302.5 2.5 302.5 2.5 352.5 352.5 352.5 352.5 302.5 302.5 302.5 302.5 252.5 352.5 252.5 352.5 277.5 302.5 277.5"/><polyline class="cls-2" points="52.5 2.5 352.5 2.5 352.5 252.5"/></g></g></svg>